<?xml version="1.0" encoding="iso-8859-1"?>
<!-- Generator: Adobe Illustrator 17.0.0, SVG Export Plug-In . SVG Version: 6.00 Build 0)  -->
<!DOCTYPE svg PUBLIC "-//W3C//DTD SVG 1.1//EN" "http://www.w3.org/Graphics/SVG/1.1/DTD/svg11.dtd">
<svg version="1.1" id="Layer_1" xmlns="http://www.w3.org/2000/svg" xmlns:xlink="http://www.w3.org/1999/xlink" x="0px" y="0px"
	 width="3000px" height="1031.81px" viewBox="0 0 3000 1031.81" style="enable-background:new 0 0 3000 1031.81;"
	 xml:space="preserve">
<polygon style="fill:#00687B;" points="642.94,766.4 642.94,761.09 642.35,747.49 641.17,736.26 639.1,723.85 636.74,712.91 
	634.08,702.87 630.53,691.93 627.28,683.36 623.73,675.09 619.6,666.52 616.64,660.61 612.5,653.51 608.37,646.72 603.34,639.33 
	599.5,634.01 596.55,630.17 592.7,625.44 589.16,621.3 586.5,618.35 584.43,615.98 572.61,604.16 570.24,602.09 565.81,598.25 
	562.56,595.59 558.13,592.04 552.51,587.91 547.49,584.36 538.62,578.75 532.12,574.9 525.03,571.06 518.53,567.81 506.11,562.49 
	497.54,559.24 488.38,556.29 480.11,553.92 469.76,551.56 458.24,549.49 447.6,548.31 437.85,547.42 432.82,547.12 422.48,547.12 
	422.18,546.83 422.18,289.42 436.67,289.13 626.98,289.13 649.74,289.42 658.61,290.02 678.41,292.08 688.16,293.56 702.93,296.52 
	714.76,299.47 725.1,302.72 733.08,305.38 741.35,308.63 750.22,312.48 762.63,318.68 772.97,324.89 777.41,327.84 782.43,331.39 
	787.16,334.94 790.41,337.6 794.55,341.14 798.09,344.39 807.26,353.55 809.32,355.92 812.87,360.06 815.83,363.9 819.67,369.22 
	823.51,375.13 827.06,381.04 830.6,387.54 833.85,394.34 837.4,403.2 840.95,413.84 843.61,423.3 845.97,435.41 847.15,443.69 
	848.04,454.62 848.33,462.01 848.33,479.45 847.74,491.27 846.86,500.13 845.67,507.23 843.31,518.16 840.65,527.62 837.4,537.37 
	833.85,545.65 830.31,553.03 826.47,560.13 822.33,566.92 819.96,570.17 817.6,573.72 812.87,579.93 809.03,584.66 801.94,592.34 
	799.57,594.7 797.21,596.77 794.84,599.14 791.59,601.8 787.75,605.05 782.14,609.18 777.41,612.44 772.97,615.39 766.47,619.23 
	758.2,623.67 750.22,627.51 741.35,631.35 740.47,631.64 741.65,633.42 744.31,636.96 748.15,642.58 751.4,647.01 755.24,652.63 
	759.08,657.95 762.04,662.38 765.59,667.4 769.72,673.31 773.27,678.34 777.41,684.25 780.66,688.98 790.12,702.57 793.66,707.59 
	797.5,712.91 801.64,718.82 805.48,724.44 808.44,728.58 812.28,734.19 815.24,738.33 819.96,745.13 822.92,749.26 826.76,754.88 
	830.6,760.2 833.85,764.93 837.4,769.95 840.06,773.79 843.61,778.82 847.45,784.43 851.29,789.75 855.13,795.37 856.31,797.14 
	856.9,799.21 640.28,799.21 641.76,787.09 642.35,780.89 "/>
<path id="Layer_1_" style="fill:#1E1E1E;" d="M452.033,645.239h16.254l5.319,0.591l7.684,1.478l9.752,3.251l5.911,2.66l4.433,2.364
	l4.728,2.955l4.137,2.955l3.251,2.66l2.955,2.66l2.069,1.773l2.069,2.364l2.955,3.251l2.66,3.546l4.137,6.206l2.66,4.728
	l2.364,5.024l1.773,4.137l2.364,7.979l1.478,8.275l0.591,4.433v12.412l-1.182,9.752l-1.478,6.797l-1.478,5.319l-3.546,8.57
	l-2.364,4.433l-2.955,4.728l-2.364,3.546l-2.955,3.842l-3.251,3.546l-5.319,5.319l-3.251,2.66l-4.728,3.546l-3.546,2.364
	l-2.66,1.478l-5.024,2.66l-7.684,2.955l-5.911,1.773l-6.206,1.478l-7.979,0.887l-4.433,0.296h-7.388l-7.979-0.887l-6.502-1.182
	l-6.797-2.069l-7.093-2.66l-5.615-2.955l-5.911-3.546l-5.024-3.842l-2.955-2.364l-4.433-4.137l-3.546-3.842l-2.66-2.955
	l-3.842-5.319l-3.251-5.32l-4.137-8.275l-2.069-5.911l-2.364-7.684l-1.182-7.093l-0.591-6.797v-9.161l0.591-6.797l1.478-6.206
	l2.66-10.048l2.069-4.433l2.069-4.728l3.546-6.206l2.955-4.137l4.728-5.911l3.251-3.546l3.251-3.251l3.251-2.66l3.842-2.955
	l4.433-2.955l4.433-2.66l4.728-2.364l4.728-2.069l7.388-2.364l7.979-1.773L452.033,645.239z"/>
<path id="Layer_3_" style="fill:#1E1E1E;" d="M1426.431,499.999h12.772l7.325,0.563l13.335,1.69l4.883,1.127l5.071,1.127
	l5.822,1.503l9.203,3.005l4.883,1.878l5.822,2.442l6.574,3.193l4.32,2.254l3.944,2.254l4.32,2.629l5.822,3.944l7.137,5.259
	l3.193,2.629l2.066,1.69l2.629,2.254l2.254,2.066l2.442,2.254l5.635,5.635l1.315,1.503l2.066,2.442l2.442,2.817l2.442,3.005
	l2.63,3.568l2.254,3.193l2.254,3.381l2.629,4.132l2.629,4.508l2.63,4.883l3.005,6.01l2.066,4.695l2.254,5.635l1.69,4.695
	l1.878,5.635l2.066,7.701l1.69,7.7l1.127,6.949l0.751,6.01l0.563,6.949l0.188,3.944v7.888l-0.376,7.325l-0.751,7.701l-1.315,8.827
	l-1.503,7.325l-1.503,5.822l-1.69,5.822l-2.066,6.01l-1.878,4.883l-1.878,4.508l-1.315,2.629l-0.751-0.376l-0.939-0.939
	l-2.066-2.254l-1.878-1.69l-2.254-2.066l-3.193-3.005l-14.462-14.462l-1.502-1.315l-3.756-3.756l-1.503-1.315l-6.761-6.761
	l-1.503-1.315l-3.944-3.944l-1.502-1.315l-2.254-2.254l-1.503-1.315l-3.005-2.817l-1.878-2.066v-1.315l0.376-1.127l0.376-6.949
	v-4.883l-0.376-5.071l-0.751-5.447l-0.939-4.883l-1.502-6.01l-2.254-6.574l-2.066-4.695l-2.629-5.447l-2.442-4.132l-1.878-2.817
	l-1.878-2.629l-2.254-2.817l-1.69-2.066l-2.254-2.629l-4.132-4.132l-1.502-1.315l-2.442-2.066l-3.193-2.442l-2.817-2.066
	l-3.193-2.066l-2.817-1.69l-4.508-2.442l-3.193-1.503l-4.695-1.878l-6.198-2.066l-4.695-1.127l-6.761-1.315l-3.568-0.376
	l-3.005-0.188h-11.457l-6.01,0.563l-6.761,1.315l-5.259,1.315l-6.198,2.066l-4.132,1.69l-3.193,1.503l-4.132,2.254l-2.629,1.503
	l-3.569,2.254l-3.005,2.254l-2.442,1.878l-2.066,1.69l-2.254,2.066l-1.502,1.315l-4.132,4.132l-1.69,2.066l-2.254,2.817
	l-1.878,2.442l-1.878,2.629l-3.944,6.574l-1.878,3.569l-2.254,5.259l-1.878,5.259l-1.503,5.071l-1.127,4.695l-1.127,7.888
	l-0.563,5.635v6.386l0.563,5.822l0.939,6.198l1.127,5.259l1.503,5.259l1.503,4.508l2.066,5.071l1.69,3.569l2.066,3.756l2.817,4.508
	l2.442,3.381l1.878,2.442l2.066,2.442l1.69,1.878l2.066,2.254l3.756,3.756l1.503,1.315l2.629,2.254l3.569,2.629l3.568,2.442
	l3.381,2.066l5.071,2.629l5.071,2.254l5.634,2.066l2.63,0.751l1.878,0.376l2.066,0.751l5.259,0.939l6.761,1.127l2.817,0.376
	l2.629,0.188h9.579l1.127,0.939l1.315,1.503l2.442,2.254l2.442,2.442l1.315,1.503l45.827,45.827l-0.188,0.563l-3.381,1.315
	l-3.944,1.69l-7.137,2.442l-6.386,1.878l-7.7,1.878l-5.822,1.127l-3.944,0.751l-10.893,1.127l-5.635,0.751l-2.254,0.188h-8.827
	l-6.949-0.751l-11.832-1.315l-7.325-1.503l-5.447-1.127l-5.071-1.315l-6.198-1.878l-6.386-2.254l-6.386-2.629l-5.447-2.442
	l-5.259-2.629l-3.381-1.878l-3.944-2.254l-4.508-2.817l-3.944-2.629l-3.005-2.066l-3.005-2.254l-1.878-1.503l-2.442-1.878
	l-2.63-2.254l-1.502-1.315l-1.878-1.69l-2.817-2.629l-6.574-6.574l-1.315-1.503l-2.629-2.817l-1.69-2.066l-2.066-2.629l-2.63-3.381
	l-2.442-3.381l-2.066-3.005l-1.878-2.817l-2.254-3.568l-2.817-4.883l-3.193-6.198l-2.066-4.132l-2.254-5.259l-2.066-5.259
	l-1.503-4.32l-1.69-5.071l-2.066-7.7l-1.502-6.949l-1.315-8.076l-0.751-6.198l-0.376-5.635l-0.188-4.695v-6.01l0.188-6.386
	l0.376-5.822l0.939-8.264l1.127-6.386l1.69-7.888l1.878-6.949l2.442-7.513l2.066-5.635l2.254-5.259l2.254-4.883l2.254-4.508
	l2.254-4.132l2.442-4.132l1.503-2.442l2.066-3.193l2.817-4.132l2.63-3.381l2.254-3.005l1.69-2.066l2.254-2.629l2.63-2.817
	l1.315-1.503l3.005-3.193l3.944-3.944l1.503-1.315l2.629-2.442l1.503-1.315l2.066-1.69l3.193-2.629l2.817-2.066l3.381-2.442
	l5.635-3.756l3.944-2.442l4.883-2.817l6.198-3.193l5.071-2.442l6.761-2.817l6.761-2.442l6.01-1.878l5.259-1.315l3.944-0.939
	l8.264-1.69l13.335-1.69L1426.431,499.999z"/>
<path id="Layer_2_" style="fill:#1E1E1E;" d="M1460.801,668.095h12.02l4.132,0.376l4.883,1.127l4.883,1.315l5.259,1.878l6.198,3.005
	l3.569,2.066l3.381,2.254l3.005,2.254l2.442,2.066l2.254,2.066l2.442,2.254l15.964,15.964l1.315,1.503l2.066,2.066l1.503,1.315
	l4.508,4.508l0.751,0.939l1.503,1.315l67.051,67.051l1.315,1.503l0.939,1.127l-0.188,0.751l-2.254,1.69l-1.69,1.503l-2.63,2.066
	l-3.381,2.442l-3.944,2.442l-5.447,2.817l-5.635,2.254l-6.761,2.066l-2.63,0.563l-4.508,0.563l-4.508,0.939l-2.066,0.188h-4.695
	l-5.071-0.751l-7.513-1.315l-5.447-1.503l-3.756-1.315l-3.569-1.503l-3.944-1.878l-3.193-1.878l-4.508-3.005l-2.442-1.878
	l-2.066-1.69l-1.878-1.69l-1.502-1.315l-73.624-73.624l-1.315-1.503l-5.071-5.071l-1.315-1.127v-0.376l-0.751-0.376l-16.34-16.34
	l-0.376-0.751l2.63-2.254l2.066-1.878l3.193-2.442l3.193-2.254l4.132-2.442l4.32-2.254l5.447-2.254l4.132-1.315l8.076-1.878
	l1.503-0.188L1460.801,668.095z"/>
<path id="Layer_8_" style="fill:#1E1E1E;" d="M1845.553,1268.844h55.078l14.609,0.198h83.111v1.777l-0.987,7.699l-1.382,7.502
	l-1.579,6.317l-1.974,5.725l-2.369,5.133l-2.566,4.541l-1.974,2.961l-2.566,3.356l-2.172,2.566l-1.382,1.579l-1.777,1.974
	l-3.948,3.948l-1.579,1.382l-3.159,2.566l-3.356,2.369l-4.738,2.961l-4.738,2.369l-5.527,2.172l-3.751,1.185l-7.107,1.777
	l-5.133,0.987l-7.107,0.79l-3.751,0.197l-15.201,0.198l-104.431,0.197h-27.046l-38.693-0.395l-2.369-0.395l-0.197-0.197v-3.553
	l1.184-7.107l1.382-6.12l1.777-5.922l1.777-4.935l1.777-3.948l1.974-3.948l1.777-2.961l1.382-2.172l2.369-3.356l1.777-2.369
	l2.369-2.764l4.935-4.935l2.172-1.777l2.566-2.172l3.948-2.764l2.764-1.777l3.553-1.974l4.935-2.369l5.725-2.172l5.33-1.579
	l6.515-1.382l3.751-0.592l4.343-0.395l7.699-0.197L1845.553,1268.844z"/>
<path id="Layer_7_" style="fill:#1E1E1E;" d="M1909.909,1371.894h146.085v2.172l-0.79,6.12l-1.777,8.686l-1.382,5.528l-2.171,6.317
	l-2.172,4.738l-2.566,4.54l-2.172,3.356l-1.777,2.369l-2.172,2.764l-2.566,2.961l-1.382,1.579l-1.579,1.382l-1.974,1.974
	l-2.172,1.777l-2.566,2.172l-3.751,2.566l-3.356,1.974l-4.541,2.369l-5.528,2.369l-8.094,2.764l-5.528,1.382l-4.738,0.79
	l-4.738,0.395l-4.146,0.197l-10.463,0.197l-19.741,0.197h-97.917l-10.265-0.197l-2.369-0.197l-0.197-0.197v-1.579l0.987-7.304
	l1.184-6.317l1.382-6.12l1.579-5.133l1.974-4.935l2.566-4.935l1.974-3.159l2.369-3.159l1.974-2.566l2.172-2.764l2.172-2.566
	l3.948-3.948l2.764-2.172l3.553-2.764l3.553-2.566l3.553-2.172l3.553-1.974l4.541-1.974l3.751-1.382l5.527-1.579l6.12-1.185
	l4.935-0.592L1909.909,1371.894z"/>
<path id="Layer_6_" style="fill:#1E1E1E;" d="M1912.476,1160.859h143.914l-1.184,8.291l-1.579,7.896l-1.579,6.317l-1.974,5.725
	l-2.172,4.935l-2.172,3.948l-2.369,3.751l-1.974,2.764l-2.566,3.159l-2.369,2.764l-2.764,2.961l-1.579,1.382l-2.172,1.974
	l-3.356,2.566l-5.33,3.553l-4.146,2.369l-4.935,2.566l-5.725,2.369l-5.133,1.579l-5.33,1.184l-5.33,0.79l-4.343,0.395l-17.372,0.197
	h-95.745l-30.204-0.197l-1.382-0.395v-2.764l0.987-6.909l1.382-7.502l1.382-5.528l1.777-5.133l2.172-4.935l2.369-4.343l1.974-2.961
	l2.764-3.751l2.764-3.356l1.382-1.579l2.172-2.369l3.553-3.553l2.172-1.777l3.356-2.566l5.33-3.553l4.738-2.764l4.935-2.369
	l4.738-1.777l4.935-1.382l6.12-1.184l5.133-0.592L1912.476,1160.859z"/>
<path id="Layer_11_" style="fill:#1E1E1E;" d="M2202.139,1268.844h55.078l14.609,0.198h83.111v1.777l-0.987,7.699l-1.382,7.502
	l-1.579,6.317l-1.974,5.725l-2.369,5.133l-2.566,4.541l-1.974,2.961l-2.566,3.356l-2.171,2.566l-1.382,1.579l-1.777,1.974
	l-3.948,3.948l-1.579,1.382l-3.158,2.566l-3.356,2.369l-4.738,2.961l-4.738,2.369l-5.527,2.172l-3.751,1.185l-7.107,1.777
	l-5.133,0.987l-7.107,0.79l-3.751,0.197l-15.201,0.198l-104.431,0.197h-27.045l-38.693-0.395l-2.369-0.395l-0.197-0.197v-3.553
	l1.184-7.107l1.382-6.12l1.777-5.922l1.777-4.935l1.777-3.948l1.974-3.948l1.777-2.961l1.382-2.172l2.369-3.356l1.777-2.369
	l2.369-2.764l4.936-4.935l2.171-1.777l2.566-2.172l3.948-2.764l2.764-1.777l3.553-1.974l4.935-2.369l5.725-2.172l5.33-1.579
	l6.515-1.382l3.751-0.592l4.343-0.395l7.699-0.197L2202.139,1268.844z"/>
<path id="Layer_10_" style="fill:#1E1E1E;" d="M2266.496,1371.894h146.085v2.172l-0.79,6.12l-1.777,8.686l-1.382,5.528l-2.171,6.317
	l-2.172,4.738l-2.566,4.54l-2.171,3.356l-1.777,2.369l-2.171,2.764l-2.566,2.961l-1.382,1.579l-1.579,1.382l-1.974,1.974
	l-2.172,1.777l-2.566,2.172l-3.751,2.566l-3.356,1.974l-4.541,2.369l-5.528,2.369l-8.094,2.764l-5.528,1.382l-4.738,0.79
	l-4.738,0.395l-4.146,0.197l-10.463,0.197l-19.741,0.197h-97.917l-10.265-0.197l-2.369-0.197l-0.198-0.197v-1.579l0.987-7.304
	l1.185-6.317l1.382-6.12l1.579-5.133l1.974-4.935l2.566-4.935l1.974-3.159l2.369-3.159l1.974-2.566l2.172-2.764l2.171-2.566
	l3.948-3.948l2.764-2.172l3.553-2.764l3.553-2.566l3.553-2.172l3.553-1.974l4.541-1.974l3.751-1.382l5.527-1.579l6.12-1.185
	l4.935-0.592L2266.496,1371.894z"/>
<path id="Layer_9_" style="fill:#1E1E1E;" d="M2269.062,1160.859h143.914l-1.185,8.291l-1.579,7.896l-1.579,6.317l-1.974,5.725
	l-2.171,4.935l-2.172,3.948l-2.369,3.751l-1.974,2.764l-2.566,3.159l-2.369,2.764l-2.764,2.961l-1.579,1.382l-2.172,1.974
	l-3.356,2.566l-5.33,3.553l-4.146,2.369l-4.935,2.566l-5.725,2.369l-5.133,1.579l-5.33,1.184l-5.33,0.79l-4.343,0.395l-17.372,0.197
	h-95.745l-30.204-0.197l-1.382-0.395v-2.764l0.987-6.909l1.382-7.502l1.382-5.528l1.777-5.133l2.171-4.935l2.369-4.343l1.974-2.961
	l2.764-3.751l2.764-3.356l1.382-1.579l2.171-2.369l3.553-3.553l2.172-1.777l3.356-2.566l5.33-3.553l4.738-2.764l4.935-2.369
	l4.738-1.777l4.935-1.382l6.12-1.184l5.133-0.592L2269.062,1160.859z"/>
<path id="Layer_14_" style="fill:#1E1E1E;" d="M3659.601,405.64h214.19l18.115,0.569l10.123,2.276l9.058,3.413l8.525,4.551
	l6.394,4.551l6.927,6.258l4.795,5.12l5.328,7.396l4.795,8.534l4.262,10.24l2.664,10.809l1.066,9.103v6.827h-225.912l-11.189-1.707
	l-11.189-3.413l-8.525-3.982l-8.525-5.689l-5.328-4.551l-5.328-5.12l-5.861-7.396l-4.795-7.965l-4.262-9.103l-3.197-10.24
	l-1.598-8.534l-1.066-11.378L3659.601,405.64z"/>
<path id="Layer_13_" style="fill:#1E1E1E;" d="M3733.128,504.631h191.279l11.189,1.707l8.525,2.845l8.525,3.982l5.861,3.413
	l5.861,4.551l6.927,6.258l5.861,6.827l6.394,10.24l4.795,10.809l2.664,9.103l1.598,9.672l0.533,9.672h-193.41l-9.058-1.707
	l-9.058-2.845l-11.189-5.689l-6.394-4.551l-5.328-4.551l-3.73-3.414l-3.73-4.551l-4.262-5.689l-4.795-8.534l-4.262-9.672
	l-2.664-9.672l-1.599-10.24L3733.128,504.631z"/>
<path id="Layer_12_" style="fill:#1E1E1E;" d="M3850.866,603.621h142.274v6.258l-2.587,13.085l-3.233,9.103l-4.527,9.103
	l-4.527,6.258l-5.174,6.258l-7.114,6.827l-7.114,5.689l-9.7,5.689l-10.347,4.551l-10.347,3.413l-11.641,2.276l-5.82,0.569h-142.921
	v-7.396l2.587-13.085l3.88-9.672l5.174-9.103l6.467-9.103l7.76-7.396l5.174-4.551l9.7-6.258l9.054-4.551l7.114-2.845l9.7-2.845
	l9.7-1.707L3850.866,603.621z"/>
<linearGradient id="SVGID_1_" gradientUnits="userSpaceOnUse" x1="436.6517" y1="276.8399" x2="564.1042" y2="423.4572">
	<stop  offset="0" style="stop-color:#FFFFFF"/>
	<stop  offset="0.0856" style="stop-color:#F7FAFB;stop-opacity:0.9144"/>
	<stop  offset="0.2189" style="stop-color:#E1EDEF;stop-opacity:0.7811"/>
	<stop  offset="0.3832" style="stop-color:#BDD8DD;stop-opacity:0.6168"/>
	<stop  offset="0.5723" style="stop-color:#8BBAC3;stop-opacity:0.4277"/>
	<stop  offset="0.7823" style="stop-color:#4A94A2;stop-opacity:0.2177"/>
	<stop  offset="1" style="stop-color:#00687B;stop-opacity:0"/>
</linearGradient>
<polygon style="fill:url(#SVGID_1_);" points="702.93,296.52 422.18,546.83 422.18,289.42 436.67,289.13 626.98,289.13 
	649.74,289.42 658.61,290.02 678.41,292.08 688.16,293.56 "/>
<path style="fill:#1C1C1C;" d="M1099.411,475.269h1.291l4.733,10.757l7.745,16.78l13.769,30.119l5.163,11.187l27.537,60.237
	l7.315,15.92l6.454,14.199l7.745,16.78l4.733,10.326l6.884,15.059l9.466,20.653l20.653,45.178l7.314,15.92l5.163,11.187
	l8.175,18.071l4.733,10.326v0.861h-16.78l-15.059-2.582l-10.326-3.012l-9.036-3.442l-8.175-4.303l-6.884-4.303l-7.315-5.594
	l-5.163-4.733l-6.024-6.024l-5.594-7.315l-4.303-6.454l-4.303-7.745l-6.454-14.199l-5.593-12.047l-6.454-14.199l-13.768-30.119
	l-14.629-31.84l-6.884-15.059l-5.163-11.187l-4.733-10.326l-6.454-14.199l-7.314-15.92l-3.442-9.036l-2.151-8.175l-1.291-9.036
	v-8.175l1.721-11.617l2.582-9.036l3.442-8.175l3.442-6.884l5.163-8.175l3.872-5.163l3.872-4.733l3.872-4.303l4.303-4.733
	L1099.411,475.269z"/>
<path style="fill:#1C1C1C;" d="M1070.153,646.946h4.733l9.896,0.861l0.86,0.43l-0.86,2.151l-3.872,4.733l-5.594,9.036l-3.442,6.884
	l-4.303,10.326l-4.733,12.908l-4.733,14.199l-3.442,9.466l-4.733,12.047l-3.872,9.036l-3.012,6.454l-4.303,8.175l-4.733,6.884
	l-4.303,5.594l-4.733,5.163l-3.872,3.872l-4.733,3.872l-6.884,4.733l-6.884,3.872l-7.315,3.442l-9.466,3.442l-11.187,2.582
	l-11.617,1.721h-17.641l0.43-2.151l6.024-12.908l5.163-11.617l9.036-19.362l6.454-14.199l5.163-11.187l6.884-15.059l4.733-9.896
	l4.733-7.745l4.733-6.884l4.733-6.024l3.872-4.303l4.303-4.733l3.442-3.012l5.593-4.733l7.745-5.163l6.024-3.442l7.314-3.442
	l9.036-3.012l10.326-2.151L1070.153,646.946z"/>
<path id="Layer" d="M723.497,1414.779h144.131l5.815,0.414v56.364l-1.661,4.559l-2.492,3.73l-3.323,2.901l-4.154,2.072l-3.323,0.829
	l-134.993,0.414l-4.984,1.658l-2.492,1.658l-2.077,2.072l-2.077,2.487l-1.661,3.316l-0.831,3.73v4.973l1.661,4.559l2.492,3.73
	l3.323,2.901l4.154,2.072l2.908,0.829l180.268,0.414l5.815,1.243l4.569,2.901l3.323,3.73l2.077,4.144l0.415,1.658l0.415,56.779
	l-0.415,0.414H736.373l-17.861-0.414l-9.138-1.243l-7.061-1.658l-8.723-2.901l-10.384-4.973l-7.892-4.973l-6.646-5.388l-4.154-3.73
	l-3.323-3.316l-3.738-4.559l-4.154-5.388l-3.738-6.217l-3.323-6.217l-3.323-8.289l-2.908-10.361l-1.246-7.874l-0.415-4.559v-13.262
	l1.246-9.532l2.077-8.289l2.908-8.703l3.738-7.875l5.4-8.703l3.738-4.973l4.984-5.802l3.323-3.316l3.323-2.901l6.23-4.973
	l4.569-2.901l6.646-3.73l7.892-3.73l10.799-3.316l8.723-1.658L723.497,1414.779z"/>
<path id="Layer_4_" d="M730.558,1309.096H920.38v57.193l-1.661,4.559l-2.492,3.316l-3.738,3.316l-3.323,1.658l-3.323,0.829
	l-182.345,0.414l-7.061,0.414l-9.138,1.658l-7.892,2.072l-7.892,2.901l-6.646,3.316l-7.061,4.144l-6.646,4.973l-4.984,4.559
	l-6.646,6.631l-4.154,5.388l-4.569,7.046l-4.569,8.703l-3.738,10.361l-2.077,8.289l-1.246,8.703l-0.415,5.802l-0.831,1.658v-14.92
	l0.415-77.916l1.246-9.118l2.908-9.947l3.323-7.46l3.323-5.802l4.984-6.631l4.569-4.973l4.154-4.144l6.646-4.973l6.23-3.73
	l7.061-3.316l7.477-2.487l8.307-1.658l3.738-0.414L730.558,1309.096z"/>
<path id="Layer_15_" d="M1055.521,1408.877h144.131l5.815,0.414v56.364l-1.661,4.559l-2.492,3.73l-3.323,2.901l-4.154,2.072
	l-3.323,0.829l-134.993,0.414l-4.984,1.658l-2.492,1.658l-2.077,2.072l-2.077,2.487l-1.661,3.316l-0.831,3.73v4.973l1.661,4.559
	l2.492,3.73l3.323,2.901l4.154,2.072l2.907,0.829l180.268,0.414l5.815,1.243l4.569,2.901l3.323,3.73l2.077,4.144l0.415,1.658
	l0.415,56.779l-0.415,0.414h-184.006l-17.861-0.414l-9.138-1.243l-7.061-1.658l-8.723-2.901l-10.384-4.973l-7.892-4.973
	l-6.646-5.388l-4.154-3.73l-3.323-3.316l-3.738-4.559l-4.154-5.388l-3.738-6.217l-3.323-6.217l-3.323-8.289l-2.908-10.361
	l-1.246-7.874l-0.415-4.559v-13.262l1.246-9.532l2.077-8.289l2.908-8.703l3.738-7.875l5.4-8.703l3.738-4.973l4.984-5.802
	l3.323-3.316l3.323-2.901l6.23-4.973l4.569-2.901l6.646-3.73l7.892-3.73l10.799-3.316l8.723-1.658L1055.521,1408.877z"/>
<path id="Layer_5_" d="M1062.582,1303.194h189.822v57.193l-1.661,4.559l-2.492,3.316l-3.738,3.316l-3.323,1.658l-3.323,0.829
	l-182.345,0.414l-7.061,0.414l-9.138,1.658l-7.892,2.072l-7.892,2.901l-6.646,3.316l-7.061,4.144l-6.646,4.973l-4.984,4.559
	l-6.646,6.631l-4.154,5.388l-4.569,7.046l-4.569,8.703l-3.738,10.361l-2.077,8.289l-1.246,8.703l-0.415,5.802l-0.831,1.658v-14.92
	l0.415-77.916l1.246-9.118l2.908-9.947l3.323-7.46l3.323-5.802l4.984-6.631l4.569-4.973l4.154-4.144l6.646-4.973l6.23-3.73
	l7.061-3.316l7.477-2.487l8.307-1.658l3.738-0.414L1062.582,1303.194z"/>
<path style="fill:#1E1E1E;" d="M1744.478,719.166h85.938l31.534,0.347h62.374v2.426l-3.119,12.821l-2.772,7.97l-2.772,6.584
	l-3.465,6.584l-5.544,8.317l-4.851,5.891l-4.851,4.851l-5.891,4.505l-5.198,3.465l-5.544,3.465l-5.544,2.772l-5.544,2.426
	l-8.317,2.772l-8.317,1.733l-5.198,0.693l-11.782,0.693l-9.703,0.346h-163.559l-15.247-0.346l-3.119-0.347l0.693-4.505l2.079-8.663
	l2.079-6.93l3.465-8.663l3.465-6.93l3.465-5.544l4.158-5.544l3.119-3.465l0.347-0.693h0.693v-0.693h0.693v-0.693l2.772-2.426
	l5.544-4.505l7.624-5.198l5.891-3.465l5.544-2.772l7.277-2.772l6.93-1.733l9.356-1.386l13.514-1.04L1744.478,719.166z"/>
<path style="fill:#1E1E1E;" d="M1970.064,532.044h24.603l0.347,0.347l-0.347,3.812l-2.772,11.089l-3.119,9.01l-4.158,9.356
	l-4.158,6.93l-4.505,6.237l-3.812,4.158l-1.733,2.079l-2.772,2.426l-3.812,3.119l-5.891,4.158l-6.237,3.812l-5.544,3.119
	l-6.584,2.772l-6.237,2.079l-5.544,1.386l-9.01,1.386l-7.97,0.693l-12.821,0.346h-176.727l-5.198-0.346l-1.386-0.347l0.347-4.158
	l2.426-9.703l3.465-9.703l3.812-8.317l3.465-6.584l3.812-5.544l4.505-5.544l4.851-4.851l4.851-3.812l5.198-3.812l7.277-4.505
	l6.584-3.465l7.97-3.119l7.277-1.733l9.01-1.386l8.663-0.693l8.317-0.346L1970.064,532.044z"/>
<path style="fill:#1E1E1E;" d="M1770.813,625.258h125.441l-0.346,2.772l-3.465,13.168l-2.772,7.97l-3.465,7.97l-4.158,7.277
	l-4.851,6.93l-4.505,5.198l-3.812,3.812l-4.851,3.812l-3.812,2.772l-6.93,4.505l-7.97,4.158l-6.93,2.772l-8.663,2.426l-8.663,1.386
	l-6.584,0.693l-8.317,0.346l-88.363,0.347h-23.91l-15.594-0.347l-1.733-0.346v-2.772l2.079-9.356l3.119-10.049l3.812-8.663
	l3.812-7.277l2.772-4.158l4.505-5.544l2.426-2.772l4.851-4.851l4.851-3.812l5.544-3.812l7.623-4.851l5.891-2.772l5.891-2.426
	l6.584-1.733l7.624-1.386l5.891-0.693l5.891-0.346L1770.813,625.258z"/>
<path style="fill:#1E1E1E;" d="M2060.08,725.486h85.938l31.534,0.346h62.374v2.426l-3.119,12.821l-2.772,7.97l-2.772,6.584
	l-3.465,6.584l-5.544,8.317l-4.851,5.891l-4.851,4.851l-5.891,4.505l-5.198,3.465l-5.544,3.465l-5.544,2.772l-5.544,2.426
	l-8.316,2.772l-8.317,1.733l-5.198,0.693l-11.782,0.693l-9.703,0.347h-163.559l-15.247-0.347l-3.119-0.346l0.693-4.505l2.079-8.663
	l2.079-6.93l3.465-8.663l3.465-6.93l3.465-5.544l4.158-5.544l3.119-3.465l0.347-0.693h0.693v-0.693h0.693v-0.693l2.772-2.426
	l5.544-4.505l7.624-5.198l5.891-3.465l5.544-2.772l7.277-2.772l6.931-1.733l9.356-1.386l13.514-1.04L2060.08,725.486z"/>
<path style="fill:#1E1E1E;" d="M2285.666,538.364h24.603l0.346,0.346l-0.346,3.812l-2.772,11.089l-3.119,9.01l-4.158,9.356
	l-4.158,6.93l-4.505,6.237l-3.812,4.158l-1.732,2.079l-2.772,2.426l-3.812,3.119l-5.891,4.158l-6.238,3.812l-5.544,3.119
	l-6.584,2.772l-6.238,2.079l-5.544,1.386l-9.01,1.386l-7.97,0.693l-12.821,0.346h-176.727l-5.198-0.346l-1.386-0.347l0.346-4.158
	l2.426-9.703l3.465-9.703l3.812-8.317l3.465-6.584l3.812-5.544l4.505-5.544l4.851-4.851l4.851-3.812l5.198-3.812l7.277-4.505
	l6.584-3.465l7.97-3.119l7.277-1.733l9.01-1.386l8.663-0.693l8.317-0.347L2285.666,538.364z"/>
<path style="fill:#1E1E1E;" d="M2086.415,631.579h125.441l-0.346,2.772l-3.465,13.168l-2.772,7.97l-3.465,7.97l-4.158,7.277
	l-4.851,6.93l-4.505,5.198l-3.812,3.812l-4.851,3.812l-3.812,2.772l-6.93,4.505l-7.97,4.158l-6.93,2.772l-8.663,2.426l-8.663,1.386
	l-6.584,0.693l-8.316,0.347l-88.363,0.346h-23.91l-15.594-0.346l-1.733-0.347v-2.772l2.079-9.356l3.119-10.049l3.812-8.663
	l3.812-7.277l2.772-4.158l4.505-5.544l2.426-2.772l4.851-4.851l4.851-3.812l5.544-3.812l7.624-4.851l5.891-2.772l5.891-2.426
	l6.584-1.733l7.624-1.386l5.891-0.693l5.891-0.347L2086.415,631.579z"/>
<path style="fill:#1E1E1E;" d="M3436.203,968.308h32.441l21.627,1.545l20.855,3.09l18.538,5.407l16.221,7.724l8.496,6.179
	l7.724,6.952l6.952,8.497l6.179,10.814l4.634,13.903l1.545,7.724v13.131l-3.862,15.448l-6.179,12.359l-7.724,10.041l-8.497,7.724
	l-8.496,5.407h-5.407l-10.041-3.09l-13.131-6.952l-4.634-2.317v-2.317l6.179-4.634l6.952-8.497l5.407-10.814l3.09-11.586v-18.538
	l-3.09-10.814l-6.179-11.586l-8.496-9.269l-7.724-6.179l-11.586-6.179l-11.586-3.862l-13.131-2.317l-12.359-0.772h-8.497
	l-14.676,0.772l-20.083,3.09l-0.772,130.537l-0.772,18.538h-6.952l-10.814-2.317l-9.269-4.634l-5.407-5.407l-4.634-9.269
	l-2.317-10.814l-1.545-13.903l-0.772-77.241l-0.772-16.221l-1.545-6.952l-4.634-8.497l-1.545-3.09l-12.358-6.179l-11.586-3.09
	v-0.772L3436.203,968.308z"/>
<path style="fill:#1E1E1E;" d="M3458.603,1017.742h1.545l2.317,19.31l4.634,16.221l4.635,10.041l5.407,9.269l6.952,8.497
	l7.724,7.724l11.586,8.496l15.448,8.496l21.627,8.497l15.448,6.179l11.586,6.179l7.724,6.179l6.952,6.952l6.952,10.814l3.862,10.814
	l1.545,9.269v14.676l-2.317,12.359l-3.862,10.814l-6.952,12.359l-8.497,10.041l-5.407,5.407l-12.359,8.496l-11.586,5.407
	l-15.448,4.634l-29.352,3.862l-8.497,0.772h-44.027l-0.772-0.772v-15.448l35.531-0.772l14.676-2.317l13.131-4.634l10.041-5.407
	l7.724-6.179l5.407-5.407l5.407-8.496l3.862-8.496l3.09-12.359v-10.814l-2.317-9.269l-5.407-13.131l-7.724-10.814l-3.862-4.635
	l-8.497-6.952l-23.172-16.993l-10.041-8.496l-7.724-6.952l-5.407-5.407l-7.724-10.041l-5.407-9.269l-3.862-10.041l-1.545-7.724
	v-18.538l2.317-11.586l3.862-10.041L3458.603,1017.742z"/>
<path id="Layer_17_" style="fill:#1E1E1E;" d="M3009.404,1414.779h17.578l12.408,1.034l10.34,1.379l12.408,2.757l10.34,3.447
	l8.272,3.791l5.859,3.447l5.859,4.136l5.17,4.825l4.136,4.825l3.791,6.204l2.757,5.859l2.068,6.549l1.379,6.893l0.689,8.617
	l-0.345,7.238l-1.034,6.549l-1.723,6.549l-2.413,6.549l-3.102,6.549l-4.481,7.238l-3.791,4.825l-3.791,4.136l-4.481,4.481
	l-5.859,4.481l-5.515,3.447l-6.549,3.447l-8.272,3.102l-4.136,1.034l-0.345,0.345l8.272,1.379l13.097,3.102l10.34,3.447l7.583,3.447
	l6.204,3.447l7.927,5.515l4.825,4.136l3.447,3.447l2.757,3.447l2.068,2.757l3.792,6.204l2.413,4.825l2.757,7.238l2.068,8.272
	l1.034,6.893l0.344,3.447v13.787l-1.034,7.238l-2.068,8.617l-2.413,6.893l-2.413,5.515l-2.757,5.515l-3.447,5.859l-4.481,6.204
	l-4.481,5.17l-1.379,1.723l-2.757,2.413l-3.447,3.447l-5.859,4.481l-7.238,4.825l-8.617,4.481l-7.238,2.757l-6.549,2.068
	l-8.272,1.723l-7.583,1.034h-16.199l-8.961-1.034l-9.306-1.723l-0.689-0.345l0.344-1.034l5.515-3.102l5.515-4.136l3.447-3.102
	l1.034-1.034h0.689l0.689-1.379l3.792-3.791l4.825-6.549l3.102-4.825l3.102-5.515l3.447-7.238l2.757-7.238l2.068-6.549l2.413-11.029
	l1.034-7.927l0.345-4.481v-11.719l-1.034-12.408l-1.379-8.961l-2.757-11.029l-2.757-7.583l-3.447-6.893l-3.447-5.17l-2.413-3.102
	l-3.791-4.136l-3.791-3.447l-5.17-3.447l-4.825-2.413l-7.583-2.757l-3.447-0.345v-1.034l4.481-2.413l4.136-3.102l5.17-4.481
	l3.447-3.791l4.136-5.515l4.136-6.893l3.447-7.238l3.102-8.617l2.413-9.651l1.379-10.685v-9.995l-0.689-7.583l-1.723-8.617
	l-2.068-6.893l-2.757-6.204l-2.413-4.481l-3.447-4.825l-4.136-4.825l-4.136-3.791l-5.17-3.791l-6.204-3.447l-6.893-2.757
	l-4.481-1.379l-0.345-0.689L3009.404,1414.779z"/>
<path id="Layer_16_" style="fill:#1E1E1E;" d="M2985.622,1429.6h4.136l6.893,0.689l7.238,1.723l4.136,1.723l-0.345,1.379
	l-3.102,4.481l-3.447,6.204l-2.413,5.515l-2.757,8.961l-2.068,9.995l-1.379,9.995l-0.689,8.961l-0.345,8.617v148.206l-0.345,8.272
	l-1.379,8.272l-1.723,6.204l-2.757,6.204l-3.102,5.515l-4.136,5.515l-4.825,5.17l-4.481,3.791l-6.204,4.136l-6.893,3.791
	l-6.893,2.757l-6.204,2.068l-8.272,1.723h-6.204v-210.246l0.689-8.961l1.723-9.995l2.413-8.617l2.757-7.238l3.447-6.549l3.447-5.17
	l3.447-4.481l6.204-6.204l5.17-3.791l4.825-2.757l5.515-2.413l5.515-1.723l4.825-1.034L2985.622,1429.6z"/>
<path id="Layer_19_" style="fill:#1E1E1E;" d="M2439.7,518.295h13.551l6.428,0.174l1.042,0.174l16.678,0.174l7.644,0.347
	l5.386,0.521l4.865,0.695l4.865,1.042l6.254,2.085l4.865,1.911l3.822,1.737l3.822,2.259l4.17,2.78l2.78,2.259l2.085,1.911
	l1.563,1.564l1.911,2.432l1.564,2.085l2.085,3.301l2.085,3.822l2.085,5.038l1.39,3.822l1.216,4.343l0.869,4.517l0.521,5.212
	l0.348,7.644v3.475l-0.348,7.471l-0.521,5.733l-1.042,7.297l-1.216,5.733l-1.737,6.949l-1.737,6.428l-1.564,4.517l-1.563,3.301
	l-1.911,3.996l-1.39,2.78L2529,640.43l-2.78,3.648l-1.39,1.911l-3.127,3.475l-2.259,2.085l-2.78,2.085l-2.78,1.911l-4.17,2.259
	l-3.301,1.216l-2.085,0.521l-2.606,0.347l-1.042,0.347l-0.174,0.347l1.737,0.521l2.259,0.869l2.78,1.39l3.301,1.564l1.911,1.216
	l1.911,1.564l2.78,2.78l1.737,2.432l2.085,3.648l1.39,2.78l1.564,4.17l0.869,3.301l0.695,3.996l0.521,5.212l0.174,2.953v8.339
	l-0.521,7.644l-0.869,7.644l-1.042,6.428l-1.216,5.386l-1.564,5.907l-1.911,6.428l-1.563,4.517l-2.085,4.517l-3.822,7.818
	l-2.259,3.475l-2.085,2.953l-1.563,2.259l-1.39,1.737l-1.564,1.737l-1.216,1.39l-1.39,1.39l-0.347,0.521h-0.347l-0.174,0.521h-0.347
	l-0.174,0.521l-1.39,1.216l-2.259,2.085l-2.432,1.911l-3.475,2.432l-2.78,1.911l-2.606,1.564l-2.954,1.564l-5.733,2.606l-3.301,1.39
	l-4.169,1.39l-7.645,1.911l-6.254,1.216l-7.123,1.042l-5.386,0.521l-6.602,0.347l-6.776,0.174h-65.672l-51.425-0.174l-0.174-0.521
	l1.737-11.814l1.911-15.115l1.564-11.466l1.737-11.293l1.737-12.509l1.563-11.988l1.738-11.988l1.911-12.683l2.606-20.327
	l2.953-19.458l2.432-18.59l1.216-8.687l1.216-7.644l2.085-14.767l1.563-11.64l1.564-9.555l0.347-1.216l0.695,0.347l2.259,3.127
	l1.563,1.911l1.911,2.085l1.564,1.911l2.085,2.259l1.216,1.39l1.564,1.737l1.564,1.911l2.259,2.606l1.39,1.737l1.911,2.259
	l1.564,1.911l2.259,2.606l1.563,1.737l1.564,1.911l1.564,1.737l1.563,1.911l2.085,2.432l1.911,2.259l4.17,4.865l1.911,2.259
	l1.564,1.911l2.085,2.432l1.911,2.085l1.216,1.39l2.085,2.432l2.259,2.78l0.695,1.39l-0.347,3.475l-2.259,15.636l-2.432,16.679
	l-1.737,13.725l-1.216,8.687l-2.432,15.462l-1.564,11.814l-0.174,1.042v1.737l0.347,0.174h57.68l6.428-0.347l2.953-0.521l2.78-0.869
	l3.996-1.911l1.911-1.216l1.738-1.737l1.737-2.606l2.085-3.996l1.042-3.127l0.695-3.822l1.216-10.077l0.347-3.127v-3.996
	l-0.521-2.953l-0.869-2.606l-1.39-2.259l-1.042-1.216l-2.259-1.564l-2.78-1.39l-2.606-0.869l-1.911-0.347l-2.432-0.174h-29.188
	l-15.81-0.174l-2.606-0.174l0.174-2.259l1.39-12.683l0.695-7.123l0.869-4.517l1.042-3.475l1.564-3.475l2.606-5.038l2.606-3.996
	l2.085-2.432l1.911-2.085l2.78-2.78l2.259-1.737l2.78-2.085l3.475-2.085l3.475-1.564l3.996-1.564l4.691-1.39l2.606-0.521
	l3.648-0.347l9.729-0.174l6.428-0.521l3.127-0.695l2.78-1.042l2.78-1.737l2.259-1.911l1.911-2.606l1.39-2.78l1.39-3.822l1.39-5.56
	l1.216-6.602l0.695-5.386l0.174-2.085v-6.081l-0.695-2.78l-0.869-2.085l-1.39-2.606l-1.39-2.085l-2.432-3.475l-2.432-3.127
	l-2.259-2.78l-4.517-5.212l-1.911-2.432l-2.085-2.432l-1.216-1.39l-1.737-1.911l-1.564-1.911l-1.39-1.39l-1.216-1.39l-2.606-2.78
	l-14.42-17.2l-1.738-1.911l-1.563-1.911l-2.432-2.606l-2.085-2.432l-1.911-2.259l-1.042-1.216l0.521-0.347l6.949-0.347
	L2439.7,518.295z"/>
<polygon style="fill:#00687B;" points="2456.725,575.278 2456.55,575.801 2448.909,575.975 2439.349,576.324 2408.425,576.847 
	2401.132,577.021 2400.783,578.232 2399.737,586.222 2397.132,603.771 2394.178,621.67 2392.967,630.358 2392.619,631.742 
	2391.921,631.393 2390.362,629.834 2388.793,627.916 2386.885,625.834 2385.665,624.45 2383.582,622.019 2382.198,620.449 
	2380.628,618.542 2378.372,615.936 2376.464,613.68 2374.895,611.762 2373.161,609.68 2371.592,607.772 2369.858,605.854 
	2368.299,603.946 2367.079,602.725 2365.52,600.818 2363.776,598.91 2362.391,597.166 2360.473,594.909 2358.914,593.002 
	2357.519,591.432 2356.309,590.048 2354.227,587.617 2352.657,585.873 2351.099,583.965 2349.529,582.232 2348.145,580.488 
	2346.575,578.58 2346.227,577.883 2346.227,575.975 2347.796,566.764 2349.006,559.472 2350.227,550.784 2352.309,536.886 
	2354.565,523.511 2354.74,522.813 2355.088,522.639 2367.079,522.465 2386.362,521.942 2390.013,521.767 2405.296,521.418 
	2408.948,521.244 2411.204,521.244 2413.122,523.162 2414.681,525.07 2416.589,527.326 2418.333,529.583 2419.892,531.327 
	2421.461,533.234 2423.892,536.188 2426.149,538.794 2427.708,540.701 2429.923,543.255 2429.974,543.317 2431.533,545.225 
	2433.441,547.481 2434.836,549.215 2439.349,554.436 2440.918,556.343 2443.001,558.774 2446.827,563.287 2448.909,565.729 
	2450.468,567.462 2452.037,569.37 2454.119,571.801 2455.688,573.719 "/>
<linearGradient id="SVGID_2_" gradientUnits="userSpaceOnUse" x1="2355.0645" y1="522.5309" x2="2397.5461" y2="571.4004">
	<stop  offset="0" style="stop-color:#FFFFFF"/>
	<stop  offset="0.1202" style="stop-color:#E7F1F3;stop-opacity:0.8798"/>
	<stop  offset="0.374" style="stop-color:#AACDD3;stop-opacity:0.626"/>
	<stop  offset="0.7368" style="stop-color:#4A94A1;stop-opacity:0.2632"/>
	<stop  offset="1" style="stop-color:#00687B;stop-opacity:0"/>
</linearGradient>
<polygon style="fill:url(#SVGID_2_);" points="2429.923,543.255 2360.473,594.909 2358.914,593.002 2357.519,591.432 
	2356.309,590.048 2354.227,587.617 2352.657,585.873 2351.099,583.965 2349.529,582.232 2348.145,580.488 2346.575,578.58 
	2346.227,577.883 2346.227,575.975 2347.796,566.764 2349.006,559.472 2350.227,550.784 2352.309,536.886 2354.565,523.511 
	2354.74,522.813 2355.088,522.639 2367.079,522.465 2386.362,521.942 2390.013,521.767 2405.296,521.418 2408.948,521.244 
	2411.204,521.244 2413.122,523.162 2414.681,525.07 2416.589,527.326 2418.333,529.583 2419.892,531.327 2421.461,533.234 
	2423.892,536.188 2426.149,538.794 2427.708,540.701 "/>
</svg>
